<?xml version="1.0" encoding="utf-8"?>
<!-- Generator: Adobe Illustrator 26.0.1, SVG Export Plug-In . SVG Version: 6.00 Build 0)  -->
<svg version="1.1" id="Calque_1" xmlns="http://www.w3.org/2000/svg" xmlns:xlink="http://www.w3.org/1999/xlink" x="0px" y="0px"
	 viewBox="0 0 364.5 334.2" style="enable-background:new 0 0 364.5 334.2;" xml:space="preserve">
<style type="text/css">
	.st0{fill:#FF725E;}
	.st1{opacity:0.7;fill:#FFFFFF;enable-background:new    ;}
	.st2{fill:#FFFFFF;}
	.st3{clip-path:url(#SVGID_00000070801070459970901420000007538784467721860484_);}
	.st4{opacity:0.5;fill:#FFFFFF;enable-background:new    ;}
	.st5{fill:none;stroke:#263238;stroke-linecap:round;stroke-miterlimit:10;}
	.st6{clip-path:url(#SVGID_00000150802561127474554040000002723152453893120958_);}
	.st7{opacity:0.2;enable-background:new    ;}
	.st8{clip-path:url(#SVGID_00000007397045310413431730000012457611333468892848_);}
	.st9{opacity:0.5;stroke:#263238;stroke-linecap:round;stroke-miterlimit:10;enable-background:new    ;}
	.st10{clip-path:url(#SVGID_00000062912698390526311840000001942024923032678541_);}
	.st11{fill:none;stroke:#263238;stroke-linecap:round;stroke-linejoin:round;}
	.st12{fill:#FF725E;stroke:#263238;stroke-linecap:round;stroke-linejoin:round;}
	.st13{fill:#263238;stroke:#263238;stroke-linecap:round;stroke-miterlimit:10;}
	.st14{fill:none;stroke:#FFFFFF;stroke-width:0.75;stroke-linecap:round;stroke-linejoin:round;}
	.st15{fill:#FF725E;stroke:#263238;stroke-linecap:round;stroke-miterlimit:10;}
	.st16{clip-path:url(#SVGID_00000170258946728781047240000007203481308778211205_);}
	.st17{clip-path:url(#SVGID_00000041986164200151314230000002988625384095792061_);}
	.st18{clip-path:url(#SVGID_00000067203527949783192400000004730371922634022535_);}
	.st19{fill:#263238;}
	.st20{fill:#FFFFFF;stroke:#263238;stroke-linecap:round;stroke-miterlimit:10;}
	.st21{clip-path:url(#SVGID_00000114774579534519286070000014334433222035935159_);}
	.st22{clip-path:url(#SVGID_00000147930322779426164620000002939847061991534484_);}
	.st23{clip-path:url(#SVGID_00000155840497628434139030000011081761273295300259_);}
	.st24{clip-path:url(#SVGID_00000122002216399576355830000007529726679691982497_);}
</style>
<g id="freepik--background-simple--inject-2">
	<path class="st0" d="M357,118.2c-17.2-51.6-62.2-95.1-116.4-107.9c-61.3-14.5-127.1,9.1-177.2,44C45.1,67,28,82.1,14.8,100.1
		c-45.2,61.6,30.8,94.3,28.9,125.1s-51,37.5-13.5,79.9s155.9,32.7,248.2-16.4c30.5-16.2,59.8-38.7,74.4-70.9
		C367.7,185,367.6,150,357,118.2z"/>
	<path class="st1" d="M357,118.2c-17.2-51.6-62.2-95.1-116.4-107.9c-61.3-14.5-127.1,9.1-177.2,44C45.1,67,28,82.1,14.8,100.1
		c-45.2,61.6,30.8,94.3,28.9,125.1s-51,37.5-13.5,79.9s155.9,32.7,248.2-16.4c30.5-16.2,59.8-38.7,74.4-70.9
		C367.7,185,367.6,150,357,118.2z"/>
</g>
<g id="freepik--Character--inject-2">
	<path class="st2" d="M107.6,281.2c-10.3,6.7-21.9,24.6-27.6,31.9s-5.8,17.7-8.2,20.5s-10.8-5.8-9-12.1c1.8-6.4,5-7.6,4.3-10.6
		s-2.4-4.9-0.6-8.8s7.3-0.2,12.7-3.9s10.8-19.8,17.6-36.6s20.9-16.4,22.6-19s11.2-36.6,20.9-34.9s27.3,18.9,21.7,28.2
		s-12.1,9.2-20,14.6s-6.9,6.5-12.1,12.1s-9,6.5-11.8,7.3c0,0-3.9,4.3-6.4,7.5S107.6,281.2,107.6,281.2z"/>
	<g>
		<defs>
			<path id="SVGID_1_" d="M107.6,281.2c-10.3,6.7-21.9,24.6-27.6,31.9s-5.8,17.7-8.2,20.5s-10.8-5.8-9-12.1c1.8-6.4,5-7.6,4.3-10.6
				s-2.4-4.9-0.6-8.8s7.3-0.2,12.7-3.9s10.8-19.8,17.6-36.6s20.9-16.4,22.6-19s11.2-36.6,20.9-34.9s27.3,18.9,21.7,28.2
				s-12.1,9.2-20,14.6s-6.9,6.5-12.1,12.1s-9,6.5-11.8,7.3c0,0-3.9,4.3-6.4,7.5S107.6,281.2,107.6,281.2z"/>
		</defs>
		<clipPath id="SVGID_00000003080910992314730320000017851957840899959479_">
			<use xlink:href="#SVGID_1_"  style="overflow:visible;"/>
		</clipPath>
		<g style="clip-path:url(#SVGID_00000003080910992314730320000017851957840899959479_);">
			<path class="st0" d="M88.9,291.4c3.2-6.1,12.9-20.6,23-29.5s42.1-22.2,42.1-22.2l6.2-1.2c0.6-0.8,1.2-1.7,1.8-2.6
				c5.6-9.3-11.9-26.5-21.7-28.2s-19.2,32.3-20.9,34.9s-15.9,2.2-22.6,19s-12.1,32.9-17.6,36.6s-10.8,0-12.7,3.9s-0.2,5.8,0.6,8.8
				s-2.4,4.3-4.3,10.6c-1.9,6.3,6.5,14.9,9,12.1c0.9-1.4,1.5-3,1.9-4.7c-1.5-4.2-2-8.6-1.3-13C73.6,305.9,85.7,297.4,88.9,291.4z"/>
			<path class="st4" d="M88.9,291.4c3.2-6.1,12.9-20.6,23-29.5s42.1-22.2,42.1-22.2l6.2-1.2c0.6-0.8,1.2-1.7,1.8-2.6
				c5.6-9.3-11.9-26.5-21.7-28.2s-19.2,32.3-20.9,34.9s-15.9,2.2-22.6,19s-12.1,32.9-17.6,36.6s-10.8,0-12.7,3.9s-0.2,5.8,0.6,8.8
				s-2.4,4.3-4.3,10.6c-1.9,6.3,6.5,14.9,9,12.1c0.9-1.4,1.5-3,1.9-4.7c-1.5-4.2-2-8.6-1.3-13C73.6,305.9,85.7,297.4,88.9,291.4z"/>
		</g>
	</g>
	<path class="st5" d="M107.6,281.2c-10.3,6.7-21.9,24.6-27.6,31.9s-5.8,17.7-8.2,20.5s-10.8-5.8-9-12.1c1.8-6.4,5-7.6,4.3-10.6
		s-2.4-4.9-0.6-8.8s7.3-0.2,12.7-3.9s10.8-19.8,17.6-36.6s20.9-16.4,22.6-19s11.2-36.6,20.9-34.9s27.3,18.9,21.7,28.2
		s-12.1,9.2-20,14.6s-6.9,6.5-12.1,12.1s-9,6.5-11.8,7.3c0,0-3.9,4.3-6.4,7.5S107.6,281.2,107.6,281.2z"/>
	<path class="st0" d="M106.2,282.2c-2.3-0.1-4.5-0.7-6.6-1.6c-4.1-1.7-5.7-6.2-6.3-10.1c-5.2,13.2-9.6,24.6-14,27.7
		c-5.4,3.7-10.8,0-12.7,3.9s-0.2,5.8,0.6,8.8s-2.4,4.3-4.3,10.6c-1.9,6.3,6.5,14.9,9,12.1s2.4-13.3,8.2-20.5
		C85.6,306.2,96.3,289.5,106.2,282.2z"/>
	<g>
		<defs>
			<path id="SVGID_00000062910189177350767530000017817754903729309360_" d="M106.2,282.2c-2.3-0.1-4.5-0.7-6.6-1.6
				c-4.1-1.7-5.7-6.2-6.3-10.1c-5.2,13.2-9.6,24.6-14,27.7c-5.4,3.7-10.8,0-12.7,3.9s-0.2,5.8,0.6,8.8s-2.4,4.3-4.3,10.6
				c-1.9,6.3,6.5,14.9,9,12.1s2.4-13.3,8.2-20.5C85.6,306.2,96.3,289.5,106.2,282.2z"/>
		</defs>
		<clipPath id="SVGID_00000114039024756413527620000008279113334461125013_">
			<use xlink:href="#SVGID_00000062910189177350767530000017817754903729309360_"  style="overflow:visible;"/>
		</clipPath>
		<g style="clip-path:url(#SVGID_00000114039024756413527620000008279113334461125013_);">
			<path class="st7" d="M71.8,333.7c0.1-0.2,0.3-0.3,0.4-0.5l0.1-0.1c0.1-0.2,0.2-0.4,0.3-0.7c0,0,0-0.1,0.1-0.1
				c0.1-0.2,0.2-0.5,0.3-0.7c0-0.1,0.1-0.2,0.1-0.2c0.1-0.3,0.2-0.6,0.3-0.9l0.1-0.3c0.1-0.2,0.1-0.5,0.2-0.7l0.1-0.4l0,0
				c-1.5-4.2-2-8.6-1.3-13c1.2-10.1,13.3-18.6,16.6-24.7c2.4-4.3,5.1-8.5,8-12.5c-2.2-2.2-3.2-5.4-3.7-8.4l-0.9,2.2l-0.1,0.4
				l-0.9,2.2l0,0l-0.8,2.1l-0.1,0.4c-0.3,0.7-0.5,1.4-0.8,2l-0.1,0.4c-0.3,0.7-0.5,1.3-0.8,2l0,0l-0.8,1.9l-0.1,0.4
				c-0.3,0.6-0.5,1.2-0.8,1.8l-0.1,0.3l-0.7,1.6l-0.1,0.2c-0.3,0.5-0.5,1.1-0.8,1.6c-0.1,0.1-0.1,0.2-0.2,0.3
				c-0.2,0.5-0.5,1-0.8,1.5l-0.1,0.2l-0.7,1.2l-0.1,0.2c-0.2,0.4-0.5,0.8-0.7,1.2l-0.1,0.2c-0.2,0.4-0.5,0.7-0.7,1.1l-0.1,0.1
				c-0.2,0.3-0.5,0.6-0.7,0.9l-0.1,0.1c-0.2,0.3-0.5,0.5-0.7,0.8l-0.1,0.1c-0.2,0.2-0.5,0.4-0.8,0.6c-1.5,1-3.2,1.6-5,1.8
				c-1,0.1-1.9,0.1-2.7,0.1c-0.8,0-1.6,0-2.3,0.1c-1.2,0.1-2.2,0.8-2.7,1.9c-0.5,1-0.8,2.1-0.9,3.2c0,0.4,0,0.7,0.1,1.1
				c0,0.2,0.1,0.3,0.1,0.5c0.3,1.3,0.9,2.5,1.3,4c0.1,0.3,0.1,0.7,0.1,1c-0.1,1.3-1,2.5-2,4.2c-1,1.7-1.8,3.5-2.4,5.4
				c-0.4,1.7-0.3,3.4,0.3,5c0.4,1.2,1.1,2.4,1.8,3.5c0.2,0.4,0.5,0.7,0.8,1C67.8,333.6,70.6,335.1,71.8,333.7z"/>
		</g>
	</g>
	<path class="st5" d="M106.2,282.2c-2.3-0.1-4.5-0.7-6.6-1.6c-4.1-1.7-5.7-6.2-6.3-10.1c-5.2,13.2-9.6,24.6-14,27.7
		c-5.4,3.7-10.8,0-12.7,3.9s-0.2,5.8,0.6,8.8s-2.4,4.3-4.3,10.6c-1.9,6.3,6.5,14.9,9,12.1s2.4-13.3,8.2-20.5
		C85.6,306.2,96.3,289.5,106.2,282.2z"/>
	<path class="st0" d="M62.6,181.3c0,0,9.1,12.3,18.9,12.2s15.4-8.7,20.4-8.1c3.7,0.6,7.3,1.5,10.8,2.9c0,0,34.7-46.5,42.7-54.3
		s12.6-16.9,1.6-19.7s-33.9,2.1-45.3,12.2s-47.9,50.2-47.9,50.2L62.6,181.3z"/>
	<g>
		<defs>
			<path id="SVGID_00000122705614867375077330000004847228109473533838_" d="M62.6,181.3c0,0,9.1,12.3,18.9,12.2s15.4-8.7,20.4-8.1
				c3.7,0.6,7.3,1.5,10.8,2.9c0,0,34.7-46.5,42.7-54.3s12.6-16.9,1.6-19.7s-33.9,2.1-45.3,12.2s-47.9,50.2-47.9,50.2L62.6,181.3z"/>
		</defs>
		<clipPath id="SVGID_00000080207736616491298640000011614576319036859014_">
			<use xlink:href="#SVGID_00000122705614867375077330000004847228109473533838_"  style="overflow:visible;"/>
		</clipPath>
		<g style="clip-path:url(#SVGID_00000080207736616491298640000011614576319036859014_);">
			<path class="st9" d="M62.6,181.3c0,0,9.1,12.3,18.9,12.2s15.4-8.7,20.4-8.1c3.7,0.6,7.3,1.5,10.8,2.9c0,0,34.7-46.5,42.7-54.3
				s12.6-16.9,1.6-19.7s-33.9,2.1-45.3,12.2s-47.9,50.2-47.9,50.2L62.6,181.3z"/>
		</g>
	</g>
	<path class="st5" d="M62.6,181.3c0,0,9.1,12.3,18.9,12.2s15.4-8.7,20.4-8.1c3.7,0.6,7.3,1.5,10.8,2.9c0,0,34.7-46.5,42.7-54.3
		s12.6-16.9,1.6-19.7s-33.9,2.1-45.3,12.2s-47.9,50.2-47.9,50.2L62.6,181.3z"/>
	<path class="st2" d="M193.6,72.8c0,0,2.8-6.7,8.4-9.7c3.7-1.9,7.8-2.9,12-3l14.6-9c0,0,4.1-14.2,18.1-20s73.6-27.4,74.1-27.8
		s7.5-3.7,7.5-3.2c0,1-0.2,1.9-0.6,2.8c-0.6,1.5-14.4,10.5-14.4,10.5s6.7-4.1,6.9-2s0,2.6-2.4,4.1s-6.9,4.3-7.8,4.8
		s-4.5,3.9-7.3,4.3s-9.9,0.9-10.5,1.5s-18.9,18.3-24.8,23.4s-15.7,9.7-15.7,9.7s-13.1,14-23,21.3s-16.6,9.1-16.6,9.1l-0.8,0.7
		c0,0,0.6,6.5,0.6,7.3s5.4,19.2,3,29.5s-7.1,14.6-7.1,14.6s-0.7,12.1-3.7,16.6s-11.2,9.9-17,14.2s-6.5,13.8-6.9,14.9
		s-5,20.2-7.5,24.8s-10,7.3-11.2,7.7c-0.7,0.2-7.6,10.8-14.3,10.2c-9-0.6-16.1-7.8-16.7-16.7c-0.1-1.8,0-3.7,0.2-5.5
		c1.5-11.4,6-16.1,6-16.1s9.6-37.4,8.6-47.3s-1.1-16.1,1.7-21.7s11.9-14.2,26.1-20.4s15.9-10.3,15.9-17.4
		C189,80.6,190.7,76.3,193.6,72.8z"/>
	<g>
		<defs>
			<path id="SVGID_00000168828143229221185890000009543074207120509586_" d="M193.6,72.8c0,0,2.8-6.7,8.4-9.7c3.7-1.9,7.8-2.9,12-3
				l14.6-9c0,0,4.1-14.2,18.1-20s73.6-27.4,74.1-27.8s7.5-3.7,7.5-3.2c0,1-0.2,1.9-0.6,2.8c-0.6,1.5-14.4,10.5-14.4,10.5
				s6.7-4.1,6.9-2s0,2.6-2.4,4.1s-6.9,4.3-7.8,4.8s-4.5,3.9-7.3,4.3s-9.9,0.9-10.5,1.5s-18.9,18.3-24.8,23.4s-15.7,9.7-15.7,9.7
				s-13.1,14-23,21.3s-16.6,9.1-16.6,9.1l-0.8,0.7c0,0,0.6,6.5,0.6,7.3s5.4,19.2,3,29.5s-7.1,14.6-7.1,14.6s-0.7,12.1-3.7,16.6
				s-11.2,9.9-17,14.2s-6.5,13.8-6.9,14.9s-5,20.2-7.5,24.8s-10,7.3-11.2,7.7c-0.7,0.2-7.6,10.8-14.3,10.2
				c-9-0.6-16.1-7.8-16.7-16.7c-0.1-1.8,0-3.7,0.2-5.5c1.5-11.4,6-16.1,6-16.1s9.6-37.4,8.6-47.3s-1.1-16.1,1.7-21.7
				s11.9-14.2,26.1-20.4s15.9-10.3,15.9-17.4C189,80.6,190.7,76.3,193.6,72.8z"/>
		</defs>
		<clipPath id="SVGID_00000034064690650834428620000015047371232148964522_">
			<use xlink:href="#SVGID_00000168828143229221185890000009543074207120509586_"  style="overflow:visible;"/>
		</clipPath>
		<g style="clip-path:url(#SVGID_00000034064690650834428620000015047371232148964522_);">
			<path class="st0" d="M214.3,109.5l-0.1-0.1c0,0-0.8,12.1-2.8,20.2S200.9,143,200.9,143l-4.5,12.1c0,0-10.1,9.3-16.6,9.3
				s-7.3-5.2-7.3-5.2c-6.1-5.2-19.3-8.8-27.9-6.7c-1.3,10.6-5.1,26.6-7,34.5c3.6,1.9,9.4,3.8,17.9,2.9c8.8-1,17.3-3.3,25.4-6.9
				c0.9-3.4,2.5-7.9,6-10.5l2-1.4c-5.9,2.4-13.3,10.4-18.8,11.1c-6.1,0.8-8.1-0.4-7.7-2.8s8.8-0.9,11.7-2s0.4-1.6-5.7-2.4
				s-4.9-3.2-4.9-3.2s9.9,0.8,11.7,0s15-4,21-9.3s6.5-16.6,6.5-16.6l4.7-2.3c0.1-1.1,0.1-1.8,0.1-1.8s4.7-4.3,7.1-14.6
				C216,122.2,215.3,115.3,214.3,109.5z"/>
			<path class="st0" d="M263.7,45.2c-11.7,5.1-14,3.5-14,3.5c1,0.7,2,1.5,2.8,2.4c1.7,1.6-0.5,6.9-6.7,11.6s-26.5,17.2-30,17.2
				s-3.5-11.7-3.5-11.7c-1.5,7.2-1.8,14.7-0.9,22l0.6-0.6c0,0,6.7-1.9,16.6-9.1s23-21.3,23-21.3s9.7-4.7,15.7-9.7
				c3.3-2.8,10.3-9.4,16-14.8C277,38.6,270.5,42.1,263.7,45.2z"/>
			<path class="st4" d="M263.7,45.2c-11.7,5.1-14,3.5-14,3.5c1,0.7,2,1.5,2.8,2.4c1.7,1.6-0.5,6.9-6.7,11.6s-26.5,17.2-30,17.2
				s-3.5-11.7-3.5-11.7c-1.5,7.2-1.8,14.7-0.9,22l0.6-0.6c0,0,6.7-1.9,16.6-9.1s23-21.3,23-21.3s9.7-4.7,15.7-9.7
				c3.3-2.8,10.3-9.4,16-14.8C277,38.6,270.5,42.1,263.7,45.2z"/>
			<path class="st4" d="M214.3,109.5l-0.1-0.1c0,0-0.8,12.1-2.8,20.2S200.9,143,200.9,143l-4.5,12.1c0,0-10.1,9.3-16.6,9.3
				s-7.3-5.2-7.3-5.2c-6.1-5.2-19.3-8.8-27.9-6.7c-1.3,10.6-5.1,26.6-7,34.5c3.6,1.9,9.4,3.8,17.9,2.9c8.8-1,17.3-3.3,25.4-6.9
				c0.9-3.4,2.5-7.9,6-10.5l2-1.4c-5.9,2.4-13.3,10.4-18.8,11.1c-6.1,0.8-8.1-0.4-7.7-2.8s8.8-0.9,11.7-2s0.4-1.6-5.7-2.4
				s-4.9-3.2-4.9-3.2s9.9,0.8,11.7,0s15-4,21-9.3s6.5-16.6,6.5-16.6l4.7-2.3c0.1-1.1,0.1-1.8,0.1-1.8s4.7-4.3,7.1-14.6
				C216,122.2,215.3,115.3,214.3,109.5z"/>
		</g>
	</g>
	<path class="st5" d="M193.6,72.8c0,0,2.8-6.7,8.4-9.7c3.7-1.9,7.8-2.9,12-3l14.6-9c0,0,4.1-14.2,18.1-20s73.6-27.4,74.1-27.8
		s7.5-3.7,7.5-3.2c0,1-0.2,1.9-0.6,2.8c-0.6,1.5-14.4,10.5-14.4,10.5s6.7-4.1,6.9-2s0,2.6-2.4,4.1s-6.9,4.3-7.8,4.8
		s-4.5,3.9-7.3,4.3s-9.9,0.9-10.5,1.5s-18.9,18.3-24.8,23.4s-15.7,9.7-15.7,9.7s-13.1,14-23,21.3s-16.6,9.1-16.6,9.1l-0.8,0.7
		c0,0,0.6,6.5,0.6,7.3s5.4,19.2,3,29.5s-7.1,14.6-7.1,14.6s-0.7,12.1-3.7,16.6s-11.2,9.9-17,14.2s-6.5,13.8-6.9,14.9
		s-5,20.2-7.5,24.8s-10,7.3-11.2,7.7c-0.7,0.2-7.6,10.8-14.3,10.2c-9-0.6-16.1-7.8-16.7-16.7c-0.1-1.8,0-3.7,0.2-5.5
		c1.5-11.4,6-16.1,6-16.1s9.6-37.4,8.6-47.3s-1.1-16.1,1.7-21.7s11.9-14.2,26.1-20.4s15.9-10.3,15.9-17.4
		C189,80.6,190.7,76.3,193.6,72.8z"/>
	<ellipse transform="matrix(0.229 -0.9734 0.9734 0.229 21.1279 296.6089)" class="st0" cx="197.8" cy="135" rx="15.6" ry="10"/>
	<path class="st11" d="M173.6,172.5c-10.1,2.2-14-2.6-14-2.6s1.1,7.5,11.8,8.6"/>
	<path class="st5" d="M197.3,127.5c0,0,5.8,14,1.1,24.6S187,166.9,174.3,169"/>
	<path class="st5" d="M185.1,172.7c0,0-7.7,6.9-13.6,9.1s-10.6,6.2-15.7-0.6"/>
	<path class="st11" d="M245.3,51.3c0,0,4.7-3.2,7.3-0.2s-0.9,8-0.9,8"/>
	<path class="st11" d="M212.8,65.1c-1,5-1.7,10.1-2.2,15.1c-0.3,3.4,0,6.8,0.7,10.1"/>
	<line class="st5" x1="168.8" y1="133" x2="180" y2="127.1"/>
	<path class="st12" d="M320.7,3.3c-0.5,0.3-47.8,17.6-68,25.4c1.8,0.1,11.4,0.9,13.9,9.2c1.1,3.5,1.6,7.2,1.5,10.9
		c6.6-5.8,23.5-22.1,24.1-22.7s7.6-1.1,10.5-1.5s6.4-3.7,7.3-4.3s5.4-3.4,7.8-4.8s2.6-2.1,2.4-4.1s-6.9,2-6.9,2s13.8-9,14.4-10.5
		c0.4-0.9,0.6-1.8,0.6-2.8C328.2-0.4,321.3,2.9,320.7,3.3z"/>
	<line class="st11" x1="313.2" y1="13.4" x2="306.7" y2="16.7"/>
	<path class="st13" d="M181.4,181.5c-2.1,0.8-4.7,1.9-7.2,3.1c-7,3.4-14.5,5.4-22.3,6.1c-6.1,0.5-11.2-2.2-14.1-4.1
		c-0.8,3.2-1.3,5.1-1.3,5.1s-4.5,4.7-6,16.1c-0.2,1.8-0.3,3.7-0.2,5.5c0.6,9,7.7,16.1,16.7,16.7c6.7,0.5,13.7-10,14.3-10.2
		c1.3-0.4,8.8-3,11.2-7.7s7.1-23.7,7.5-24.8C180.3,186.9,180.6,184.4,181.4,181.5z"/>
	<path class="st14" d="M141.4,197.3c0,0,8-3.5,16.1-0.6"/>
	<path class="st15" d="M158.2,187.5c-10.3,1.2-16.3-2.6-19.3-5.6c-0.7,3-1.3,5.4-1.7,7.2c5.3,3.3,11.5,4.7,17.7,4
		c11.1-1.4,21.2-5.9,25.7-8.2l0,0c0-0.2,0.1-0.5,0.1-0.7l0,0c0.1-0.7,0.4-1.5,0.6-2.4c0,0,0-0.1,0.1-0.2c0.1-0.3,0.2-0.5,0.2-0.8
		c0,0,0-0.1,0-0.1c0.3-0.9,0.7-1.8,1.1-2.7C175.5,183.2,167.1,186.4,158.2,187.5z"/>
	<path class="st15" d="M126.9,121.9c0,0-1.8,0.9,4.7-3.4s4.6,1.9,9-9.1S150,90.2,158,87.2s31.8,1.3,31.8,1.3l5.6,3.9l-7.8,15.1
		c-3.8-1.9-8.2-2-12.1-0.4c-6.4,2.8-9.7,6.2-9,9.1s6.7,11.2,6.7,11.2s-28.3-11.1-32.8-8.7s-18.1,7.4-18.9,7.8
		S126.9,121.9,126.9,121.9z"/>
	<path class="st5" d="M144.3,113.1c0.9-1.4,2-3,3.1-4.9c4.9-8.2,14.6-11.8,14.6-11.8"/>
	<path class="st5" d="M162.7,105.5c-5.3,1.3-9.9,4.7-12.7,9.3"/>
	<path class="st2" d="M157.5,132.2c0,0-11.4-1.7-20,5.6s-7.6,15.1-7.6,15.1s-8.4,3.7-10.1,8c-1,2.5-1.7,5.2-2,7.8
		c0,0-4.5,4.3-8.2,8.6s-6.9,5-7.7,10.6s-0.4,19.4,3.7,33s6.9,19.6,8,22s10.8,14.8,12.5,15.1s3.4,0.7,4.7,0s11-3,10.6-5.8
		c-0.1-1.5-0.6-2.9-1.5-4.1l-0.4-0.6c0,0,1.7-3.2,0.6-4.7s-2.1-1.7-4.1-3.5s-3.2-2.4-5.6-2.4s-5,0.2-5,0.2s-3.7-1.5-3.7-12.3
		s3.4-20.2,5-25c1-2.8,1.6-5.7,1.7-8.6c0,0,1.3,1.9,10.5-2.4s11.2-16.4,11.2-16.4l-13.5,2.1c6.6-0.6,13.1-1.9,19.4-3.9
		c10.5-3.4,14.9-3.9,19-19.8"/>
	<g>
		<defs>
			<path id="SVGID_00000088825453794882073180000011010547140275465116_" d="M157.5,132.2c0,0-11.4-1.7-20,5.6s-7.6,15.1-7.6,15.1
				s-8.4,3.7-10.1,8c-1,2.5-1.7,5.2-2,7.8c0,0-4.5,4.3-8.2,8.6s-6.9,5-7.7,10.6s-0.4,19.4,3.7,33s6.9,19.6,8,22s10.8,14.8,12.5,15.1
				s3.4,0.7,4.7,0s11-3,10.6-5.8c-0.1-1.5-0.6-2.9-1.5-4.1l-0.4-0.6c0,0,1.7-3.2,0.6-4.7s-2.1-1.7-4.1-3.5s-3.2-2.4-5.6-2.4
				s-5,0.2-5,0.2s-3.7-1.5-3.7-12.3s3.4-20.2,5-25c1-2.8,1.6-5.7,1.7-8.6c0,0,1.3,1.9,10.5-2.4s11.2-16.4,11.2-16.4l-13.5,2.1
				c6.6-0.6,13.1-1.9,19.4-3.9c10.5-3.4,14.9-3.9,19-19.8"/>
		</defs>
		<clipPath id="SVGID_00000092446381815714432910000011623758924712979625_">
			<use xlink:href="#SVGID_00000088825453794882073180000011010547140275465116_"  style="overflow:visible;"/>
		</clipPath>
		<g style="clip-path:url(#SVGID_00000092446381815714432910000011623758924712979625_);">
			<path class="st0" d="M139.7,166.8c-1.9-2.6,9-10,11.9-12.9s-9.3,4.8-12.2,5.5s-5.5-1.3-3.9-10.3c1.2-5.6,3.9-10.9,7.9-15
				c-2.2,0.9-4.2,2.1-6,3.6c-8.6,7.3-7.6,15.1-7.6,15.1s-8.4,3.7-10.1,8c-1,2.5-1.7,5.2-2,7.8c0,0-4.5,4.3-8.2,8.6s-6.9,5-7.7,10.6
				s-0.4,19.4,3.7,33s6.9,19.6,8,22s10.8,14.8,12.5,15.1s3.4,0.7,4.7,0s11-3,10.6-5.8c-0.1-0.7-0.2-1.3-0.4-2
				c-3.6,0.5-10.1,2.7-11.9,2.7c-1.9,0-3.9-2.9-6.7-6.1s-7.4-11.6-8-21.8s3.9-19.9,3.9-24.7s-5.8,6.4-4.5,1.6s6.4-11.9,10.3-13.8
				s8.4-3.2,10-6.4s-5.8-1-3.2-3.5s19.3-5.8,24.7-9S141.7,169.4,139.7,166.8z"/>
			<path class="st4" d="M139.7,166.8c-1.9-2.6,9-10,11.9-12.9s-9.3,4.8-12.2,5.5s-5.5-1.3-3.9-10.3c1.2-5.6,3.9-10.9,7.9-15
				c-2.2,0.9-4.2,2.1-6,3.6c-8.6,7.3-7.6,15.1-7.6,15.1s-8.4,3.7-10.1,8c-1,2.5-1.7,5.2-2,7.8c0,0-4.5,4.3-8.2,8.6s-6.9,5-7.7,10.6
				s-0.4,19.4,3.7,33s6.9,19.6,8,22s10.8,14.8,12.5,15.1s3.4,0.7,4.7,0s11-3,10.6-5.8c-0.1-0.7-0.2-1.3-0.4-2
				c-3.6,0.5-10.1,2.7-11.9,2.7c-1.9,0-3.9-2.9-6.7-6.1s-7.4-11.6-8-21.8s3.9-19.9,3.9-24.7s-5.8,6.4-4.5,1.6s6.4-11.9,10.3-13.8
				s8.4-3.2,10-6.4s-5.8-1-3.2-3.5s19.3-5.8,24.7-9S141.7,169.4,139.7,166.8z"/>
		</g>
	</g>
	<path class="st5" d="M157.5,132.2c0,0-11.4-1.7-20,5.6s-7.6,15.1-7.6,15.1s-8.4,3.7-10.1,8c-1,2.5-1.7,5.2-2,7.8
		c0,0-4.5,4.3-8.2,8.6s-6.9,5-7.7,10.6s-0.4,19.4,3.7,33s6.9,19.6,8,22s10.8,14.8,12.5,15.1s3.4,0.7,4.7,0s11-3,10.6-5.8
		c-0.1-1.5-0.6-2.9-1.5-4.1l-0.4-0.6c0,0,1.7-3.2,0.6-4.7s-2.1-1.7-4.1-3.5s-3.2-2.4-5.6-2.4s-5,0.2-5,0.2s-3.7-1.5-3.7-12.3
		s3.4-20.2,5-25c1-2.8,1.6-5.7,1.7-8.6c0,0,1.3,1.9,10.5-2.4s11.2-16.4,11.2-16.4l-13.5,2.1c6.6-0.6,13.1-1.9,19.4-3.9
		c10.5-3.4,14.9-3.9,19-19.8"/>
	<line class="st11" x1="128.3" y1="191.4" x2="127.3" y2="182.8"/>
	<path class="st2" d="M181.2,125.1c5.4-1.7,6.7-8.4,9.9-15.5c2.5-5.3,5.3-10.4,8.5-15.3c-5.5,0.1-10.9-0.8-16.1-2.6
		c-8.4-3-18.3-0.9-20.2,1.1s-1.7-0.6-1.3,5.8s2.8,15.5,5,18.7s3.6,5,3.6,5"/>
	<g>
		<defs>
			<path id="SVGID_00000111156710072173523750000016361631223983099571_" d="M181.2,125.1c5.4-1.7,6.7-8.4,9.9-15.5
				c2.5-5.3,5.3-10.4,8.5-15.3c-5.5,0.1-10.9-0.8-16.1-2.6c-8.4-3-18.3-0.9-20.2,1.1s-1.7-0.6-1.3,5.8s2.8,15.5,5,18.7s3.6,5,3.6,5"
				/>
		</defs>
		<clipPath id="SVGID_00000105410715835830252690000007859524620419447480_">
			<use xlink:href="#SVGID_00000111156710072173523750000016361631223983099571_"  style="overflow:visible;"/>
		</clipPath>
		<g style="clip-path:url(#SVGID_00000105410715835830252690000007859524620419447480_);">
			<path class="st0" d="M197.2,94.2c-4.7-0.2-9.3-1.1-13.7-2.6c-8.4-3-18.3-0.9-20.2,1.1s-1.7-0.6-1.3,5.8s2.8,15.5,5,18.7l0.8,1.1
				l29.8-23.9L197.2,94.2z"/>
			<path class="st4" d="M197.2,94.2c-4.7-0.2-9.3-1.1-13.7-2.6c-8.4-3-18.3-0.9-20.2,1.1s-1.7-0.6-1.3,5.8s2.8,15.5,5,18.7l0.8,1.1
				l29.8-23.9L197.2,94.2z"/>
		</g>
	</g>
	<path class="st5" d="M181.2,125.1c5.4-1.7,6.7-8.4,9.9-15.5c2.5-5.3,5.3-10.4,8.5-15.3c-5.5,0.1-10.9-0.8-16.1-2.6
		c-8.4-3-18.3-0.9-20.2,1.1s-1.7-0.6-1.3,5.8s2.8,15.5,5,18.7s3.6,5,3.6,5"/>
	<path class="st5" d="M179.9,114c3.3,0,6.6-0.4,9.8-1.2c0.4-1.1,0.9-2.2,1.4-3.3c2.5-5.3,5.3-10.4,8.5-15.3
		c-5.5,0.1-10.9-0.8-16.1-2.6c-8.4-3-18.3-0.9-20.2,1.1s-1.7-0.6-1.3,5.8c0.3,3.6,0.9,7.3,1.9,10.8C166.9,111.9,171.9,114,179.9,114
		z"/>
	<line class="st11" x1="181.7" y1="122.1" x2="177.2" y2="102.3"/>
	<path class="st13" d="M186.9,57c0.5-2.2,0.9-4.5,1.2-6.7c0.4-3.6-8.1-9.8-16.9-9.1s-5.6,9.3-6.7,12.1s-9.5-0.2-11.8,4.9
		s1.7,6.5,1.7,8s-6.9,5.4-6,14.2s16.1,17.4,19.4,18.1s7.5-2.4,7.5-5s5.6-3.6,7.1-6s-2.4-10.8-2.2-12.7s6-9.3,4.1-11.2
		C182.3,61.7,186.9,57,186.9,57z"/>
	<path class="st14" d="M177.9,59.1c0,0,2.9-0.3,2.9-6.8s-9.3-4.8-10.6-2.2s-0.3,7.4-3.5,8.7s-8.4,1.3-8.4,3.9v3.5"/>
	<path class="st14" d="M169.6,64.3c0,0-11.9-0.6-18,10.3"/>
	<path class="st14" d="M171.2,67.1c0,0-8,0.3-12.2,5.8"/>
	<path class="st2" d="M184.9,58.2c0.5-0.7,7.4,6.5,7.7,7.3c0.3,1,0.5,2,0.6,3c0.1,0.4,0.3,0.7,0.6,0.9l4.8,3.3
		c0.6,0.5,0.8,1.3,0.4,2l-1.7,2.4c-0.3,0.4-0.3,1-0.1,1.4c1.4,2.9,6.1,13.2,5.8,14c-0.4,1-1.1,1.8-2.1,2.2
		c-0.9,0.4-18.1,6.2-20.2,6.4c-1.6,0.1-5.4-6.4-7.1-9.4c-0.4-0.7-1.3-0.9-2-0.5c-1.5,0.8-3.3,0.9-4.8,0.1c-3.7-1.7-8-4.9-6.2-8.4
		s4.9-3.7,6.2-2.8c0.9,0.6,2.4,1.9,3.3,2.7c0.5,0.4,1.1,0.5,1.6,0.2l0.8-0.5c0.7-0.4,0.9-1.2,0.6-1.9c-0.1-0.1-0.1-0.2-0.2-0.3l0,0
		c-0.3-0.4-0.5-0.8-0.7-1.3c0,0,5.4-4.7,3.6-7.3s-6.9-6.5-6.4-8.6c0.6-2.1,8-4.7,11.2-4.7C182.1,58.6,184.5,58.7,184.9,58.2z"/>
	<g>
		<defs>
			<path id="SVGID_00000124156435212812243670000003671894798290539453_" d="M184.9,58.2c0.5-0.7,7.4,6.5,7.7,7.3c0.3,1,0.5,2,0.6,3
				c0.1,0.4,0.3,0.7,0.6,0.9l4.8,3.3c0.6,0.5,0.8,1.3,0.4,2l-1.7,2.4c-0.3,0.4-0.3,1-0.1,1.4c1.4,2.9,6.1,13.2,5.8,14
				c-0.4,1-1.1,1.8-2.1,2.2c-0.9,0.4-18.1,6.2-20.2,6.4c-1.6,0.1-5.4-6.4-7.1-9.4c-0.4-0.7-1.3-0.9-2-0.5c-1.5,0.8-3.3,0.9-4.8,0.1
				c-3.7-1.7-8-4.9-6.2-8.4s4.9-3.7,6.2-2.8c0.9,0.6,2.4,1.9,3.3,2.7c0.5,0.4,1.1,0.5,1.6,0.2l0.8-0.5c0.7-0.4,0.9-1.2,0.6-1.9
				c-0.1-0.1-0.1-0.2-0.2-0.3l0,0c-0.3-0.4-0.5-0.8-0.7-1.3c0,0,5.4-4.7,3.6-7.3s-6.9-6.5-6.4-8.6c0.6-2.1,8-4.7,11.2-4.7
				C182.1,58.6,184.5,58.7,184.9,58.2z"/>
		</defs>
		<clipPath id="SVGID_00000026146972897873573110000012194795938404841384_">
			<use xlink:href="#SVGID_00000124156435212812243670000003671894798290539453_"  style="overflow:visible;"/>
		</clipPath>
		<g style="clip-path:url(#SVGID_00000026146972897873573110000012194795938404841384_);">
			<path class="st0" d="M176,71.9c1.9,2.6-3.6,7.3-3.6,7.3c0.2,0.5,0.4,0.9,0.7,1.3l0,0c0.5,0.6,0.5,1.5-0.1,2
				c-0.1,0.1-0.2,0.1-0.3,0.2l-0.8,0.5c-0.5,0.3-1.2,0.2-1.6-0.2c-0.9-0.8-2.5-2.1-3.3-2.7c-1.3-0.9-4.3-0.8-6.2,2.8
				s2.4,6.7,6.2,8.4c1.5,0.8,3.3,0.7,4.8-0.1c0.7-0.4,1.6-0.2,2,0.5c1.7,3,5.5,9.5,7.1,9.4c2.1-0.2,19.2-6,20.2-6.4
				c0.9-0.5,1.7-1.3,2.1-2.2c0,0-7.4,3.5-11.5-0.1s-9.3-8.9-10.9-11.3s1.8-7.8-1.6-12.9s-9.4-4.9-9.4-4.9
				C169.1,65.3,174.1,69.2,176,71.9z"/>
			<path class="st4" d="M176,71.9c1.9,2.6-3.6,7.3-3.6,7.3c0.2,0.5,0.4,0.9,0.7,1.3l0,0c0.5,0.6,0.5,1.5-0.1,2
				c-0.1,0.1-0.2,0.1-0.3,0.2l-0.8,0.5c-0.5,0.3-1.2,0.2-1.6-0.2c-0.9-0.8-2.5-2.1-3.3-2.7c-1.3-0.9-4.3-0.8-6.2,2.8
				s2.4,6.7,6.2,8.4c1.5,0.8,3.3,0.7,4.8-0.1c0.7-0.4,1.6-0.2,2,0.5c1.7,3,5.5,9.5,7.1,9.4c2.1-0.2,19.2-6,20.2-6.4
				c0.9-0.5,1.7-1.3,2.1-2.2c0,0-7.4,3.5-11.5-0.1s-9.3-8.9-10.9-11.3s1.8-7.8-1.6-12.9s-9.4-4.9-9.4-4.9
				C169.1,65.3,174.1,69.2,176,71.9z"/>
		</g>
	</g>
	<path class="st5" d="M184.9,58.2c0.5-0.7,7.4,6.5,7.7,7.3c0.3,1,0.5,2,0.6,3c0.1,0.4,0.3,0.7,0.6,0.9l4.8,3.3
		c0.6,0.5,0.8,1.3,0.4,2l-1.7,2.4c-0.3,0.4-0.3,1-0.1,1.4c1.4,2.9,6.1,13.2,5.8,14c-0.4,1-1.1,1.8-2.1,2.2
		c-0.9,0.4-18.1,6.2-20.2,6.4c-1.6,0.1-5.4-6.4-7.1-9.4c-0.4-0.7-1.3-0.9-2-0.5c-1.5,0.8-3.3,0.9-4.8,0.1c-3.7-1.7-8-4.9-6.2-8.4
		s4.9-3.7,6.2-2.8c0.9,0.6,2.4,1.9,3.3,2.7c0.5,0.4,1.1,0.5,1.6,0.2l0.8-0.5c0.7-0.4,0.9-1.2,0.6-1.9c-0.1-0.1-0.1-0.2-0.2-0.3l0,0
		c-0.3-0.4-0.5-0.8-0.7-1.3c0,0,5.4-4.7,3.6-7.3s-6.9-6.5-6.4-8.6c0.6-2.1,8-4.7,11.2-4.7C182.1,58.6,184.5,58.7,184.9,58.2z"/>
	<path class="st19" d="M190.1,68.2c0,0-4,0-5.1,0.6s-2.6,4.6-2.6,4.6l3.7-2.3l4.3-0.9l1.1-3.1L190.1,68.2z"/>
	<polyline class="st20" points="190.4,72.2 187,73.9 190.4,73.9 	"/>
	<path class="st2" d="M186.8,255.2c-6.5,2-12.7,4.7-18.5,8.2c-8.8,5.4-23.3,14-29.9,14.4s-8.6-1.7-12.5-3.2s-6,3.4-6,6.2
		s0,4.1-1.9,6.7s-6.7,12.3-6.7,12.3s-2.6,10.5,0,10.8s4.3-3.2,9.7-7.6s14-14.2,21.7-14.9s41.8-4.3,56-11s13.3-4.9,17.4-8
		s2.6-9.1,0.6-13.3c-1.1-2.3-2.7-4.4-4.7-6"/>
	<g>
		<defs>
			<path id="SVGID_00000123436179441333044740000012390814994744619191_" d="M186.8,255.2c-6.5,2-12.7,4.7-18.5,8.2
				c-8.8,5.4-23.3,14-29.9,14.4s-8.6-1.7-12.5-3.2s-6,3.4-6,6.2s0,4.1-1.9,6.7s-6.7,12.3-6.7,12.3s-2.6,10.5,0,10.8s4.3-3.2,9.7-7.6
				s14-14.2,21.7-14.9s41.8-4.3,56-11s13.3-4.9,17.4-8s2.6-9.1,0.6-13.3c-1.1-2.3-2.7-4.4-4.7-6"/>
		</defs>
		<clipPath id="SVGID_00000085230007944183271690000000829543081160307122_">
			<use xlink:href="#SVGID_00000123436179441333044740000012390814994744619191_"  style="overflow:visible;"/>
		</clipPath>
		<g style="clip-path:url(#SVGID_00000085230007944183271690000000829543081160307122_);">
			<path class="st0" d="M207.2,273.3c-1.7-0.3-3-0.7-3-1.4c0-1.6,4.9-1.6,7.3-4.9s-0.4-6.5-3.6-10.1c-1.2-1.4-2.8-3.4-4.4-5.3
				l-16.5,3.6c-6.5,2-12.7,4.7-18.5,8.2c-8.8,5.4-23.4,14-29.9,14.4s-8.6-1.7-12.5-3.2s-6,3.4-6,6.2s0,4.1-1.9,6.7
				s-6.7,12.3-6.7,12.3s-2.6,10.5,0,10.8s4.3-3.2,9.7-7.6s14-14.2,21.7-14.9s41.8-4.3,56-11C202.5,275.3,205.2,274.1,207.2,273.3z"
				/>
			<path class="st4" d="M207.2,273.3c-1.7-0.3-3-0.7-3-1.4c0-1.6,4.9-1.6,7.3-4.9s-0.4-6.5-3.6-10.1c-1.2-1.4-2.8-3.4-4.4-5.3
				l-16.5,3.6c-6.5,2-12.7,4.7-18.5,8.2c-8.8,5.4-23.4,14-29.9,14.4s-8.6-1.7-12.5-3.2s-6,3.4-6,6.2s0,4.1-1.9,6.7
				s-6.7,12.3-6.7,12.3s-2.6,10.5,0,10.8s4.3-3.2,9.7-7.6s14-14.2,21.7-14.9s41.8-4.3,56-11C202.5,275.3,205.2,274.1,207.2,273.3z"
				/>
		</g>
	</g>
	<path class="st5" d="M186.8,255.2c-6.5,2-12.7,4.7-18.5,8.2c-8.8,5.4-23.3,14-29.9,14.4s-8.6-1.7-12.5-3.2s-6,3.4-6,6.2
		s0,4.1-1.9,6.7s-6.7,12.3-6.7,12.3s-2.6,10.5,0,10.8s4.3-3.2,9.7-7.6s14-14.2,21.7-14.9s41.8-4.3,56-11s13.3-4.9,17.4-8
		s2.6-9.1,0.6-13.3c-1.1-2.3-2.7-4.4-4.7-6"/>
	<path class="st2" d="M217.5,257.9c0,0-4.5-17.4-34.2-42.5c-20-16.9-28.9-20.5-40.3-10.5s-9.1,16.6-5,23s20.9,18.5,34.7,24.7
		s27.8,14.8,35.7,14"/>
	<g>
		<defs>
			<path id="SVGID_00000147919048515543906500000009918357358823083957_" d="M217.5,257.9c0,0-4.5-17.4-34.2-42.5
				c-20-16.9-28.9-20.5-40.3-10.5s-9.1,16.6-5,23s20.9,18.5,34.7,24.7s27.8,14.8,35.7,14"/>
		</defs>
		<clipPath id="SVGID_00000133499809529722391660000007556669840842634419_">
			<use xlink:href="#SVGID_00000147919048515543906500000009918357358823083957_"  style="overflow:visible;"/>
		</clipPath>
		<g style="clip-path:url(#SVGID_00000133499809529722391660000007556669840842634419_);">
			<path class="st0" d="M195.2,245.3c-4-0.4,3.2,7.7-5.3,5.7s-38-27.1-44.1-35.2c-5-6.7-0.7-12.2,1-14c-1.4,0.9-2.8,1.9-4,3
				c-11.4,10.1-9.1,16.6-5,23s20.9,18.5,34.7,24.7s27.8,14.8,35.7,14l3.7-3.5c-0.7-1.9-2.4-3.9-4.2-5.9
				C204.6,253.4,199.3,245.7,195.2,245.3z"/>
			<path class="st4" d="M195.2,245.3c-4-0.4,3.2,7.7-5.3,5.7s-38-27.1-44.1-35.2c-5-6.7-0.7-12.2,1-14c-1.4,0.9-2.8,1.9-4,3
				c-11.4,10.1-9.1,16.6-5,23s20.9,18.5,34.7,24.7s27.8,14.8,35.7,14l3.7-3.5c-0.7-1.9-2.4-3.9-4.2-5.9
				C204.6,253.4,199.3,245.7,195.2,245.3z"/>
		</g>
	</g>
	<path class="st5" d="M217.5,257.9c0,0-4.5-17.4-34.2-42.5c-20-16.9-28.9-20.5-40.3-10.5s-9.1,16.6-5,23s20.9,18.5,34.7,24.7
		s27.8,14.8,35.7,14"/>
	<path class="st0" d="M171.7,274.3c-1.9-4.2-1.4-8.9-0.5-12.5c-0.9,0.5-1.9,1.1-2.8,1.6c-8.8,5.4-23.3,14-29.9,14.4
		s-8.6-1.7-12.5-3.2s-6,3.4-6,6.2s0,4.1-1.9,6.7s-6.7,12.3-6.7,12.3s-2.6,10.5,0,10.8s4.3-3.2,9.7-7.6s14-14.2,21.7-14.9
		c12.8-1.2,25.6-3.1,38.2-5.6C176.9,281.1,173.5,278.1,171.7,274.3z"/>
	<g>
		<defs>
			<path id="SVGID_00000145763132641973176350000017056878670056819328_" d="M171.7,274.3c-1.9-4.2-1.4-8.9-0.5-12.5
				c-0.9,0.5-1.9,1.1-2.8,1.6c-8.8,5.4-23.3,14-29.9,14.4s-8.6-1.7-12.5-3.2s-6,3.4-6,6.2s0,4.1-1.9,6.7s-6.7,12.3-6.7,12.3
				s-2.6,10.5,0,10.8s4.3-3.2,9.7-7.6s14-14.2,21.7-14.9c12.8-1.2,25.6-3.1,38.2-5.6C176.9,281.1,173.5,278.1,171.7,274.3z"/>
		</defs>
		<clipPath id="SVGID_00000023256402917735971640000010026613848296438661_">
			<use xlink:href="#SVGID_00000145763132641973176350000017056878670056819328_"  style="overflow:visible;"/>
		</clipPath>
		<g style="clip-path:url(#SVGID_00000023256402917735971640000010026613848296438661_);">
			<path class="st7" d="M171.7,274.3c-1.9-4.2-1.4-8.9-0.5-12.5c-0.9,0.5-1.9,1.1-2.8,1.6c-8.8,5.4-23.3,14-29.9,14.4
				s-8.6-1.7-12.5-3.2s-6,3.4-6,6.2s0,4.1-1.9,6.7s-6.7,12.3-6.7,12.3s-2.6,10.5,0,10.8s4.3-3.2,9.7-7.6s14-14.2,21.7-14.9
				c12.8-1.2,25.6-3.1,38.2-5.6C176.9,281.1,173.5,278.1,171.7,274.3z"/>
		</g>
	</g>
	<path class="st11" d="M171.7,274.3c-1.9-4.2-1.4-8.9-0.5-12.5c-0.9,0.5-1.9,1.1-2.8,1.6c-8.8,5.4-23.3,14-29.9,14.4
		s-8.6-1.7-12.5-3.2s-6,3.4-6,6.2s0,4.1-1.9,6.7s-6.7,12.3-6.7,12.3s-2.6,10.5,0,10.8s4.3-3.2,9.7-7.6s14-14.2,21.7-14.9
		c12.8-1.2,25.6-3.1,38.2-5.6C176.9,281.1,173.5,278.1,171.7,274.3z"/>
	<path class="st11" d="M139.3,225.3c0,0,40.8,26.1,52.8,30.5s9.3-3.8,9.3-3.8"/>
	<path class="st11" d="M175.8,276.5c0,0,11.4,1.1,19.1-6"/>
	<path class="st15" d="M173.2,130.1c0,0-14.5-9.5-31.2-7.5s-36.7,19.1-49.6,33.8S22.2,251,22.2,251L20.4,238
		c-0.8-6.2,0.8-12.4,4.5-17.4l9.1-12.1c0,0,0.9-14.9,9-22.6c5.4-5,11.2-9.5,17.4-13.5c2.1-1.4,23-22.4,37.8-37.4
		s32.6-25.7,48.9-21.2s22.7,8,26.5,11.3s3.9,3,3.9,3L173.2,130.1z"/>
	<line class="st5" x1="74.9" y1="165.6" x2="78.3" y2="161.8"/>
	<line class="st5" x1="34.1" y1="208.5" x2="73.6" y2="166.9"/>
	<path class="st5" d="M130.1,120.4c-1.1,0.4-2.1,0.9-3.2,1.4"/>
	<path class="st5" d="M175.1,129.7c0,0-20.4-16.4-41.8-10.3"/>
	<path class="st0" d="M139.6,247.8c0,0,1.7-3.2,0.6-4.7s-2.1-1.7-4.1-3.5s-3.2-2.4-5.6-2.4s-5,0.2-5,0.2s-3.7-1.5-3.7-12.3
		c0.1-6.7,1.2-13.3,3.3-19.7c-3.3,1.9-6.9,3.1-10.7,3.4c-4.6,0.5-9.2-1.4-12.1-5c0.6,5.9,1.8,11.7,3.4,17.4c4.1,13.6,6.9,19.6,8,22
		s10.8,14.8,12.5,15.1s3.4,0.7,4.7,0s11-3,10.6-5.8c-0.1-1.5-0.6-2.9-1.5-4.1L139.6,247.8z"/>
	<g>
		<defs>
			<path id="SVGID_00000139999641408710122730000005546354018354476162_" d="M139.6,247.8c0,0,1.7-3.2,0.6-4.7s-2.1-1.7-4.1-3.5
				s-3.2-2.4-5.6-2.4s-5,0.2-5,0.2s-3.7-1.5-3.7-12.3c0.1-6.7,1.2-13.3,3.3-19.7c-3.3,1.9-6.9,3.1-10.7,3.4c-4.6,0.5-9.2-1.4-12.1-5
				c0.6,5.9,1.8,11.7,3.4,17.4c4.1,13.6,6.9,19.6,8,22s10.8,14.8,12.5,15.1s3.4,0.7,4.7,0s11-3,10.6-5.8c-0.1-1.5-0.6-2.9-1.5-4.1
				L139.6,247.8z"/>
		</defs>
		<clipPath id="SVGID_00000146486734850311606000000004353596948321016209_">
			<use xlink:href="#SVGID_00000139999641408710122730000005546354018354476162_"  style="overflow:visible;"/>
		</clipPath>
		<g style="clip-path:url(#SVGID_00000146486734850311606000000004353596948321016209_);">
			<path class="st7" d="M141.4,252.4L141.4,252.4c0-0.3-0.1-0.6-0.1-0.8c0-0.1,0-0.2,0-0.2s-0.1-0.4-0.1-0.5s-0.1-0.3-0.1-0.4
				c-3.6,0.5-10.1,2.7-11.9,2.7c-1.9,0-3.9-2.9-6.7-6.1s-7.4-11.6-8-21.8c-0.4-6.2,1.1-12.1,2.3-16.9c-0.8,0.2-1.6,0.3-2.5,0.4
				c-4.6,0.5-9.2-1.4-12.1-5c0,0.3,0.1,0.5,0.1,0.8c0.1,0.5,0.1,0.9,0.2,1.4c0,0.3,0.1,0.6,0.1,1s0.1,0.9,0.2,1.3s0.1,0.7,0.2,1
				s0.1,0.9,0.2,1.3l0.2,1l0.2,1.4l0.2,1c0.1,0.5,0.2,1,0.3,1.4c0.1,0.3,0.1,0.6,0.2,1c0.1,0.5,0.3,1.1,0.4,1.6
				c0.1,0.3,0.1,0.5,0.2,0.8c0.2,0.8,0.4,1.6,0.7,2.4c4.1,13.6,6.9,19.6,8,22c0.1,0.2,0.2,0.4,0.3,0.6c0.2,0.3,0.5,0.8,0.8,1.2
				c0.5,0.8,1.2,1.7,2,2.7l0.5,0.6c3.3,4.4,7.9,9.8,9,10c1.7,0.4,3.4,0.7,4.7,0c0.5-0.2,1-0.4,1.5-0.6l0.8-0.2
				C136.3,256.3,141.7,254.5,141.4,252.4z"/>
			<path class="st11" d="M138.5,244.4l-2.4,2c0,0,1.7-0.1,3.8,1.9"/>
		</g>
	</g>
	<path class="st11" d="M139.6,247.8c0,0,1.7-3.2,0.6-4.7s-2.1-1.7-4.1-3.5s-3.2-2.4-5.6-2.4s-5,0.2-5,0.2s-3.7-1.5-3.7-12.3
		c0.1-6.7,1.2-13.3,3.3-19.7c-3.3,1.9-6.9,3.1-10.7,3.4c-4.6,0.5-9.2-1.4-12.1-5c0.6,5.9,1.8,11.7,3.4,17.4c4.1,13.6,6.9,19.6,8,22
		s10.8,14.8,12.5,15.1s3.4,0.7,4.7,0s11-3,10.6-5.8c-0.1-1.5-0.6-2.9-1.5-4.1L139.6,247.8z"/>
</g>
<g id="freepik--Clouds--inject-2">
	<path class="st2" d="M346.8,173.7c-6.8-3.7-9.9-0.6-12.4-3.7s6.8-11.1-11.8-19.1c0,0-1.2-17.3-26.6-18s-18.6,17.3-25.4,21.7
		s-8.7-2.5-15.5,1.9s-3.7,13-9.3,14.2c-5.6,1.2-13-5.6-19.8-1.2s-6.8,8-9.9,8s-9.3-2.5-13,0s-8,5.6-8,5.6h156.6
		C351.7,182.9,353.6,177.4,346.8,173.7z"/>
	<path class="st2" d="M120,73.6c-2.6-1.4-3.8-0.2-4.8-1.4s2.6-4.3-4.5-7.4c0,0-0.5-6.7-10.3-6.9s-7.2,6.7-9.8,8.4s-3.3-1-6,0.7
		s-1.4,5-3.6,5.5s-5-2.1-7.6-0.5S70.7,75,69.5,75s-3.6-0.9-5,0c-1.4,0.9-3.1,2.1-3.1,2.1h60.4C121.9,77.1,122.6,75,120,73.6z"/>
</g>
</svg>
